<?xml version="1.0" encoding="UTF-8"?>
<svg version="1.1" xmlns="http://www.w3.org/2000/svg" width="1787" height="417">
<path d="M0 0 C1.30373566 -0.00191345 2.60747131 -0.0038269 3.95071411 -0.00579834 C6.70937861 -0.00873856 9.46791319 -0.00449458 12.2265625 0.00488281 C15.71057342 0.01616608 19.19427531 0.00958745 22.67827511 -0.00198746 C57.79119189 -0.10146426 57.79119189 -0.10146426 74.2578125 4.515625 C75.04687988 4.73250977 75.83594727 4.94939453 76.64892578 5.17285156 C101.52831775 12.2610836 120.96212166 27.74041334 133.5703125 50.265625 C147.82139146 77.84438688 148.50514749 112.29670153 139.25 141.55078125 C134.5789186 155.36688528 127.35987845 167.43801372 117.5703125 178.265625 C116.74917969 179.18085938 115.92804688 180.09609375 115.08203125 181.0390625 C98.84597436 198.21320267 76.97100595 208.67224668 53.25360107 209.61291504 C45.8769896 209.77621956 38.5025357 209.71659523 31.125 209.65625 C28.41546059 209.64652027 25.70592178 209.64289012 22.99636841 209.63909912 C16.64320797 209.62677845 10.29033034 209.59410868 3.93729317 209.55370116 C-3.30841168 209.50863872 -10.55413166 209.48691075 -17.79994226 209.46691942 C-32.67668024 209.42536304 -47.55315528 209.35522912 -62.4296875 209.265625 C-58.31101535 176.32380689 -53.87468374 143.42347326 -49.4037075 110.52794647 C-48.14740692 101.28301026 -46.89933817 92.0370382 -45.66152376 82.78960824 C-44.77737213 76.18965445 -43.88379842 69.59101655 -42.98334891 62.99326682 C-42.45063674 59.08804513 -41.92196285 55.18238293 -41.40369987 51.27521515 C-40.91943314 47.62561646 -40.42342919 43.97779892 -39.91868019 40.33097839 C-39.65124462 38.3772172 -39.39589078 36.4218138 -39.14105225 34.46636963 C-37.7175785 24.31971348 -35.94014796 13.30679866 -27.421875 6.7109375 C-18.40540722 0.32299931 -10.83693766 -0.03524378 0 0 Z M9.5703125 40.265625 C7.22087187 56.77219732 4.87380882 73.27910568 2.52958679 89.78641987 C1.44110402 97.45079227 0.35183929 105.11505203 -0.73925781 112.77905273 C-1.69009608 119.45787222 -2.63947586 126.1368971 -3.58709431 132.81617421 C-4.08904331 136.35378744 -4.59172918 139.89129248 -5.09616089 143.42855263 C-5.65882142 147.37432984 -6.21822609 151.32056482 -6.77734375 155.2668457 C-7.02981369 157.03198265 -7.02981369 157.03198265 -7.28738403 158.83277893 C-7.51456619 160.44186127 -7.51456619 160.44186127 -7.74633789 162.08345032 C-7.87907608 163.01722661 -8.01181427 163.9510029 -8.14857483 164.91307545 C-8.48901186 167.36721223 -8.48901186 167.36721223 -8.4296875 170.265625 C-2.31399103 170.34072329 3.80142719 170.39466747 9.91748047 170.43041992 C11.99077032 170.44535069 14.06402948 170.46570269 16.13720703 170.49194336 C39.16270583 170.90047973 39.16270583 170.90047973 60.8203125 163.828125 C61.47306152 163.48958496 62.12581055 163.15104492 62.79833984 162.80224609 C73.25384998 157.0316628 81.3593527 147.96788105 86.5703125 137.265625 C87.01890625 136.37746094 87.4675 135.48929687 87.9296875 134.57421875 C95.86888684 117.41153783 97.26508739 96.23213163 90.88623047 78.34765625 C84.4904914 62.61191139 72.51567408 51.1807454 57.03125 44.5546875 C45.81471717 40.37697211 35.39165747 40.110152 23.5390625 40.1953125 C22.18066615 40.20096674 20.82226753 40.20609782 19.46386719 40.21069336 C16.1659565 40.22387329 12.86816465 40.24232833 9.5703125 40.265625 Z " fill="#616161" transform="translate(1058.4296875,87.734375)"/>
<path d="M0 0 C1.90609289 -0.0001553 3.81218608 -0.00164939 5.71827698 -0.00440979 C9.69815159 -0.00578815 13.67766338 0.00666832 17.6574707 0.02954102 C22.72869634 0.05790426 27.79931916 0.05518586 32.87058926 0.0424509 C36.80256694 0.03545571 40.73440824 0.04332693 44.66636848 0.05570793 C46.53484637 0.06018658 48.40333908 0.06059104 50.27181816 0.05664253 C66.09259036 0.03885634 79.82884274 1.03978714 92.19140625 12.05859375 C92.89265625 12.86296875 93.59390625 13.66734375 94.31640625 14.49609375 C95.30640625 15.54796875 95.30640625 15.54796875 96.31640625 16.62109375 C105.80489424 30.26079524 106.78448308 45.08250145 104.12890625 61.05859375 C100.70555678 79.75295024 90.99182119 94.95961952 75.37890625 105.80859375 C70.25396016 109.10461171 65.08569665 111.55597839 59.31640625 113.49609375 C60.32703125 114.25921875 61.33765625 115.02234375 62.37890625 115.80859375 C76.64533729 128.20543201 80.68769705 150.36930225 85.75048828 167.77148438 C86.69896181 171.02198733 87.66547891 174.26678528 88.6328125 177.51171875 C89.2445868 179.59993928 89.8553026 181.68847028 90.46484375 183.77734375 C90.75225433 184.735802 91.03966492 185.69426025 91.33578491 186.6817627 C93.27261444 193.42736264 94.9664995 199.47092279 91.44140625 205.93359375 C89.31640625 208.49609375 89.31640625 208.49609375 87.31640625 209.49609375 C85.86603518 209.58558792 84.41161996 209.61367815 82.95849609 209.60961914 C81.60732193 209.60950584 81.60732193 209.60950584 80.22885132 209.60939026 C79.25485382 209.60422897 78.28085632 209.59906769 77.27734375 209.59375 C76.28135162 209.59233505 75.2853595 209.5909201 74.25918579 209.58946228 C71.06989572 209.58385311 67.88067519 209.57129905 64.69140625 209.55859375 C62.5325531 209.55357993 60.37369884 209.54901682 58.21484375 209.54492188 C52.91534075 209.5338807 47.61587847 209.51713363 42.31640625 209.49609375 C40.02538915 203.70136392 38.3033575 197.95541977 36.828125 191.90625 C36.36411714 190.05008399 35.8999181 188.19396576 35.43554688 186.33789062 C34.72197161 183.46289564 34.01096415 180.5873103 33.30395508 177.71069336 C30.91018857 167.99886466 28.45665356 158.36362213 25.14453125 148.91796875 C24.90502243 148.23247452 24.66551361 147.54698029 24.41874695 146.8407135 C21.95802412 140.07902728 18.93204984 134.88315883 12.75390625 131.05859375 C7.42481022 128.63627737 2.29735548 128.27177595 -3.49609375 127.93359375 C-4.53540039 127.86881836 -4.53540039 127.86881836 -5.59570312 127.80273438 C-7.29148061 127.69747922 -8.98751427 127.59636512 -10.68359375 127.49609375 C-10.73221558 128.25942017 -10.7808374 129.02274658 -10.83093262 129.8092041 C-11.43309759 138.46259814 -12.48513012 147.00610407 -13.71484375 155.58984375 C-13.91311636 156.99413684 -14.11106726 158.39847539 -14.30871582 159.80285645 C-14.71976137 162.71756273 -15.13343921 165.63187768 -15.54931641 168.54589844 C-16.08102148 172.27183022 -16.60782617 175.99843382 -17.13291168 179.72530365 C-17.54000538 182.61313671 -17.94871879 185.50073851 -18.35801697 188.38825989 C-18.55285074 189.76288394 -18.74740438 191.13754773 -18.94166565 192.51225281 C-19.212864 194.42830356 -19.48626873 196.34404162 -19.75976562 198.25976562 C-19.91441284 199.34640503 -20.06906006 200.43304443 -20.22839355 201.5526123 C-20.6397957 204.21288045 -21.15567045 206.85647724 -21.68359375 209.49609375 C-37.85359375 209.49609375 -54.02359375 209.49609375 -70.68359375 209.49609375 C-70.68359375 204.08712514 -70.54415467 199.4663154 -69.83061218 194.19891357 C-69.73880718 193.51042462 -69.64700217 192.82193566 -69.55241519 192.1125834 C-69.24661553 189.82922677 -68.93327567 187.54697293 -68.61987305 185.26464844 C-68.39770484 183.61799417 -68.17598625 181.97127919 -67.9546814 180.32450867 C-67.35417456 175.8670126 -66.74690207 171.41046316 -66.13801932 166.95410442 C-65.62908434 163.22465552 -65.12347158 159.49475929 -64.61784679 155.76486039 C-63.42397483 146.95830073 -62.22461596 138.1525004 -61.02172852 129.34716797 C-59.78410158 120.28689276 -58.55523896 111.22546007 -57.33080167 102.16339374 C-56.27664306 94.36371341 -55.21723046 86.56475908 -54.1536172 78.76636243 C-53.51959528 74.11744447 -52.88745866 69.46829124 -52.26029015 64.8184433 C-51.66962169 60.44108277 -51.07233891 56.06467289 -50.47014999 51.68888283 C-50.2513824 50.09135225 -50.03485253 48.49351322 -49.82084465 46.89533806 C-47.65648805 30.75328191 -45.77981429 17.870745 -33.55078125 6.35546875 C-22.99866791 -0.48759113 -12.10377456 -0.08078017 0 0 Z M2.31640625 34.49609375 C1.31239024 41.20281234 0.31632148 47.91067716 -0.67431641 54.61938477 C-1.01201875 56.89992784 -1.35151756 59.18020566 -1.69287109 61.46020508 C-2.18412957 64.74361633 -2.66885023 68.02793748 -3.15234375 71.3125 C-3.30546021 72.32631241 -3.45857666 73.34012482 -3.61633301 74.38465881 C-4.36018122 79.48252597 -4.85961866 84.34422197 -4.68359375 89.49609375 C-0.76707472 89.5846925 3.14917999 89.63701292 7.06640625 89.68359375 C8.15824219 89.70873047 9.25007813 89.73386719 10.375 89.75976562 C22.54378505 89.86777259 34.8969667 87.77580496 44.06640625 79.24609375 C50.54959583 72.30509351 53.14138966 63.80220961 53.69140625 54.43359375 C53.09490793 48.17036136 50.95226201 44.20803583 46.62890625 39.68359375 C37.57222663 33.70276759 28.2150486 34.1249839 17.75390625 34.30859375 C16.25326866 34.32366983 14.7526164 34.33735306 13.25195312 34.34960938 C9.60646173 34.38237893 5.9615299 34.43399896 2.31640625 34.49609375 Z " fill="#484848" transform="translate(1486.68359375,87.50390625)"/>
<path d="M0 0 C1.90609289 -0.0001553 3.81218608 -0.00164939 5.71827698 -0.00440979 C9.69815159 -0.00578815 13.67766338 0.00666832 17.6574707 0.02954102 C22.72869634 0.05790426 27.79931916 0.05518586 32.87058926 0.0424509 C36.80256694 0.03545571 40.73440824 0.04332693 44.66636848 0.05570793 C46.53484637 0.06018658 48.40333908 0.06059104 50.27181816 0.05664253 C66.09259036 0.03885634 79.82884274 1.03978714 92.19140625 12.05859375 C92.89265625 12.86296875 93.59390625 13.66734375 94.31640625 14.49609375 C95.30640625 15.54796875 95.30640625 15.54796875 96.31640625 16.62109375 C105.80489424 30.26079524 106.78448308 45.08250145 104.12890625 61.05859375 C100.70555678 79.75295024 90.99182119 94.95961952 75.37890625 105.80859375 C70.25396016 109.10461171 65.08569665 111.55597839 59.31640625 113.49609375 C60.32703125 114.25921875 61.33765625 115.02234375 62.37890625 115.80859375 C76.64533729 128.20543201 80.68769705 150.36930225 85.75048828 167.77148438 C86.69896181 171.02198733 87.66547891 174.26678528 88.6328125 177.51171875 C89.2445868 179.59993928 89.8553026 181.68847028 90.46484375 183.77734375 C90.75225433 184.735802 91.03966492 185.69426025 91.33578491 186.6817627 C93.27261444 193.42736264 94.9664995 199.47092279 91.44140625 205.93359375 C89.31640625 208.49609375 89.31640625 208.49609375 87.31640625 209.49609375 C85.86603518 209.58558792 84.41161996 209.61367815 82.95849609 209.60961914 C81.60732193 209.60950584 81.60732193 209.60950584 80.22885132 209.60939026 C79.25485382 209.60422897 78.28085632 209.59906769 77.27734375 209.59375 C76.28135162 209.59233505 75.2853595 209.5909201 74.25918579 209.58946228 C71.06989572 209.58385311 67.88067519 209.57129905 64.69140625 209.55859375 C62.5325531 209.55357993 60.37369884 209.54901682 58.21484375 209.54492188 C52.91534075 209.5338807 47.61587847 209.51713363 42.31640625 209.49609375 C40.02538915 203.70136392 38.3033575 197.95541977 36.828125 191.90625 C36.36411714 190.05008399 35.8999181 188.19396576 35.43554688 186.33789062 C34.72197161 183.46289564 34.01096415 180.5873103 33.30395508 177.71069336 C30.91018857 167.99886466 28.45665356 158.36362213 25.14453125 148.91796875 C24.90502243 148.23247452 24.66551361 147.54698029 24.41874695 146.8407135 C21.95802412 140.07902728 18.93204984 134.88315883 12.75390625 131.05859375 C7.42481022 128.63627737 2.29735548 128.27177595 -3.49609375 127.93359375 C-4.53540039 127.86881836 -4.53540039 127.86881836 -5.59570312 127.80273438 C-7.29148061 127.69747922 -8.98751427 127.59636512 -10.68359375 127.49609375 C-10.73221558 128.25942017 -10.7808374 129.02274658 -10.83093262 129.8092041 C-11.43309759 138.46259814 -12.48513012 147.00610407 -13.71484375 155.58984375 C-13.91311636 156.99413684 -14.11106726 158.39847539 -14.30871582 159.80285645 C-14.71976137 162.71756273 -15.13343921 165.63187768 -15.54931641 168.54589844 C-16.08102148 172.27183022 -16.60782617 175.99843382 -17.13291168 179.72530365 C-17.54000538 182.61313671 -17.94871879 185.50073851 -18.35801697 188.38825989 C-18.55285074 189.76288394 -18.74740438 191.13754773 -18.94166565 192.51225281 C-19.212864 194.42830356 -19.48626873 196.34404162 -19.75976562 198.25976562 C-19.91441284 199.34640503 -20.06906006 200.43304443 -20.22839355 201.5526123 C-20.6397957 204.21288045 -21.15567045 206.85647724 -21.68359375 209.49609375 C-37.85359375 209.49609375 -54.02359375 209.49609375 -70.68359375 209.49609375 C-70.68359375 204.08712514 -70.54415467 199.4663154 -69.83061218 194.19891357 C-69.73880718 193.51042462 -69.64700217 192.82193566 -69.55241519 192.1125834 C-69.24661553 189.82922677 -68.93327567 187.54697293 -68.61987305 185.26464844 C-68.39770484 183.61799417 -68.17598625 181.97127919 -67.9546814 180.32450867 C-67.35417456 175.8670126 -66.74690207 171.41046316 -66.13801932 166.95410442 C-65.62908434 163.22465552 -65.12347158 159.49475929 -64.61784679 155.76486039 C-63.42397483 146.95830073 -62.22461596 138.1525004 -61.02172852 129.34716797 C-59.78410158 120.28689276 -58.55523896 111.22546007 -57.33080167 102.16339374 C-56.27664306 94.36371341 -55.21723046 86.56475908 -54.1536172 78.76636243 C-53.51959528 74.11744447 -52.88745866 69.46829124 -52.26029015 64.8184433 C-51.66962169 60.44108277 -51.07233891 56.06467289 -50.47014999 51.68888283 C-50.2513824 50.09135225 -50.03485253 48.49351322 -49.82084465 46.89533806 C-47.65648805 30.75328191 -45.77981429 17.870745 -33.55078125 6.35546875 C-22.99866791 -0.48759113 -12.10377456 -0.08078017 0 0 Z M2.31640625 34.49609375 C1.31239024 41.20281234 0.31632148 47.91067716 -0.67431641 54.61938477 C-1.01201875 56.89992784 -1.35151756 59.18020566 -1.69287109 61.46020508 C-2.18412957 64.74361633 -2.66885023 68.02793748 -3.15234375 71.3125 C-3.30546021 72.32631241 -3.45857666 73.34012482 -3.61633301 74.38465881 C-4.36018122 79.48252597 -4.85961866 84.34422197 -4.68359375 89.49609375 C-0.76707472 89.5846925 3.14917999 89.63701292 7.06640625 89.68359375 C8.15824219 89.70873047 9.25007813 89.73386719 10.375 89.75976562 C22.54378505 89.86777259 34.8969667 87.77580496 44.06640625 79.24609375 C50.54959583 72.30509351 53.14138966 63.80220961 53.69140625 54.43359375 C53.09490793 48.17036136 50.95226201 44.20803583 46.62890625 39.68359375 C37.57222663 33.70276759 28.2150486 34.1249839 17.75390625 34.30859375 C16.25326866 34.32366983 14.7526164 34.33735306 13.25195312 34.34960938 C9.60646173 34.38237893 5.9615299 34.43399896 2.31640625 34.49609375 Z " fill="#777777" transform="translate(478.68359375,87.50390625)"/>
<path d="M0 0 C1.59698278 0.02009803 3.19399002 0.03834295 4.79101562 0.0546875 C8.67378881 0.09841735 12.55537022 0.1672593 16.4375 0.25 C15.86551046 10.12454067 14.78569553 19.82818856 13.37109375 29.6171875 C13.195177 30.86121338 13.01926025 32.10523926 12.8380127 33.38696289 C12.18892621 37.96705584 11.5314932 42.54596283 10.875 47.125 C9.410625 57.39625 7.94625 67.6675 6.4375 78.25 C43.0675 78.745 43.0675 78.745 80.4375 79.25 C80.7675 74.63 81.0975 70.01 81.4375 65.25 C81.82679508 61.76548471 82.23599019 58.30054602 82.70703125 54.828125 C82.82930588 53.91722107 82.95158051 53.00631714 83.07756042 52.06781006 C83.33476076 50.16872584 83.594477 48.2699807 83.85668945 46.37158203 C84.25099372 43.49274478 84.62656 40.611825 85.00195312 37.73046875 C88.34579811 12.89072657 88.34579811 12.89072657 99.4375 4.25 C105.29828797 0.77694046 111.35786842 0.1217825 118.05078125 0.15234375 C119.29794922 0.15556641 120.54511719 0.15878906 121.83007812 0.16210938 C123.12365234 0.17048828 124.41722656 0.17886719 125.75 0.1875 C127.71936523 0.19426758 127.71936523 0.19426758 129.72851562 0.20117188 C132.9648901 0.21294051 136.20117178 0.2293824 139.4375 0.25 C139.53591001 5.82996898 139.20690136 11.13899827 138.45716858 16.66400146 C138.29896839 17.87671089 138.29896839 17.87671089 138.13757223 19.1139195 C137.78551503 21.80285549 137.42609444 24.49075322 137.06665039 27.17871094 C136.81167981 29.11420515 136.55715962 31.04975875 136.30305481 32.98536682 C135.61353262 38.22736423 134.91755441 43.46848597 134.22027516 48.70945644 C133.49125598 54.19641272 132.76776615 59.68409818 132.04356384 65.17169189 C130.82723842 74.38201946 129.60693737 83.59181327 128.3840332 92.80126953 C126.96969265 103.4526001 125.5605776 114.10461138 124.15448767 124.75703406 C122.65741993 136.0984294 121.15681565 147.43935465 119.6550262 158.78012562 C119.22232767 162.04935753 118.79026225 165.31867262 118.35832405 168.58800507 C117.68010909 173.71990906 116.99950823 178.85149121 116.31704521 183.98283195 C116.06671594 185.86774416 115.8171731 187.752761 115.56846619 189.63788795 C115.22939564 192.20686029 114.88748079 194.77543822 114.54481506 197.34393311 C114.44656325 198.0933416 114.34831143 198.84275009 114.24708229 199.61486793 C113.80524637 202.90507765 113.24446389 206.02214443 112.4375 209.25 C96.2675 209.25 80.0975 209.25 63.4375 209.25 C65.38255986 191.49387068 67.42199009 173.75396658 69.59960938 156.02490234 C70.07238955 152.16935013 70.5401334 148.31320519 71.0078125 144.45703125 C71.30959348 141.99215046 71.61166511 139.52730524 71.9140625 137.0625 C72.05260651 135.91587891 72.19115051 134.76925781 72.33389282 133.58789062 C72.46427948 132.53408203 72.59466614 131.48027344 72.72900391 130.39453125 C72.84208893 129.47003174 72.95517395 128.54553223 73.07168579 127.59301758 C73.4375 125.25 73.4375 125.25 74.4375 122.25 C50.0175 122.25 25.5975 122.25 0.4375 122.25 C-0.614375 130.108125 -1.66625 137.96625 -2.75 146.0625 C-5.57975266 167.14177044 -8.51592006 188.2009022 -11.5625 209.25 C-27.7325 209.25 -43.9025 209.25 -60.5625 209.25 C-60.5625 203.27866506 -60.4390449 198.23604196 -59.6335907 192.43946838 C-59.53361859 191.70787835 -59.43364648 190.97628831 -59.33064491 190.22252887 C-58.99797421 187.79928353 -58.65662142 185.37734687 -58.31518555 182.95532227 C-58.07324664 181.20676524 -57.83182578 179.45813647 -57.59088135 177.70944214 C-56.93743198 172.97929289 -56.27618563 168.25026497 -55.61306739 163.52146268 C-55.05906712 159.56566362 -54.50888634 155.60933716 -53.95868713 151.65300792 C-52.66008998 142.31565685 -51.3551512 132.9792073 -50.04614258 123.64331055 C-48.69824656 114.02932917 -47.36057681 104.41396476 -46.02802628 94.79784542 C-44.88127879 86.52501009 -43.7283982 78.25304542 -42.57058936 69.98175091 C-41.880163 65.0490631 -41.19197045 60.11609106 -40.50958824 55.1822834 C-39.86741044 50.54127757 -39.21753362 45.90141242 -38.56185913 41.26229477 C-38.32333517 39.56562228 -38.08745413 37.86857566 -37.85450172 36.17112923 C-34.35990891 10.74258081 -34.35990891 10.74258081 -26.5625 4.25 C-18.65528987 -1.260355 -9.16968489 -0.20134368 0 0 Z " fill="#7B7B7B" transform="translate(246.5625,87.75)"/>
<path d="M0 0 C1.93317833 -0.00065712 1.93317833 -0.00065712 3.90541077 -0.00132751 C7.41315855 -0.00218269 10.92059396 0.01536473 14.42826962 0.03639436 C18.10376957 0.05524158 21.77927792 0.0569179 25.45481873 0.06047058 C32.40320029 0.06976755 39.35143902 0.09434923 46.2997579 0.12451905 C54.21515251 0.15813651 62.1305542 0.17456747 70.04600251 0.18960536 C86.31777974 0.22090113 102.58941359 0.27361551 118.86108398 0.34057617 C118.72104214 2.89167496 118.57575799 5.44229683 118.42749023 7.99291992 C118.36930115 9.06769592 118.36930115 9.06769592 118.30993652 10.16418457 C117.83083502 18.25336216 117.1026141 24.72271115 110.86108398 30.40307617 C107.28137456 33.28447107 104.4562113 34.46684431 99.85578918 34.46083069 C98.63796501 34.46289268 98.63796501 34.46289268 97.39553833 34.46499634 C96.50865326 34.46140106 95.62176819 34.45780579 94.70800781 34.45410156 C93.30283653 34.4543206 93.30283653 34.4543206 91.86927795 34.45454407 C88.76886693 34.45384668 85.66851578 34.44606235 82.56811523 34.43823242 C80.42005954 34.43636763 78.27200342 34.43494401 76.12394714 34.4339447 C70.46699858 34.43012437 64.81007564 34.42029819 59.15313721 34.40924072 C53.38196153 34.39901622 47.61078173 34.39444485 41.83959961 34.3894043 C30.51341647 34.37867551 19.18725236 34.36160486 7.86108398 34.34057617 C7.53108398 38.30057617 7.20108398 42.26057617 6.86108398 46.34057617 C5.21108398 57.56057617 3.56108398 68.78057617 1.86108398 80.34057617 C48.39108398 80.83557617 48.39108398 80.83557617 95.86108398 81.34057617 C95.21179984 89.78127005 94.47987194 98.09128218 93.36108398 106.46557617 C93.16579102 107.98538086 93.16579102 107.98538086 92.96655273 109.53588867 C91.98998165 116.95388318 91.98998165 116.95388318 90.86108398 120.34057617 C59.51108398 120.34057617 28.16108398 120.34057617 -4.13891602 120.34057617 C-4.46891602 123.97057617 -4.79891602 127.60057617 -5.13891602 131.34057617 C-5.56642914 134.37179872 -6.01453687 137.3845485 -6.51391602 140.40307617 C-6.64330566 141.20165039 -6.77269531 142.00022461 -6.90600586 142.82299805 C-7.17646693 144.48687193 -7.44877363 146.15044682 -7.72290039 147.8137207 C-8.1424872 150.36226734 -8.55516844 152.91186638 -8.96704102 155.46166992 C-9.23226357 157.08803769 -9.49787428 158.71434221 -9.76391602 160.34057617 C-9.88686035 161.09991455 -10.00980469 161.85925293 -10.13647461 162.64160156 C-10.63345298 165.64095174 -11.17562788 168.45071177 -12.13891602 171.34057617 C23.17108398 171.34057617 58.48108398 171.34057617 94.86108398 171.34057617 C94.86108398 183.79332223 94.77325222 192.65049106 86.48608398 202.02807617 C77.07910511 210.31517661 68.5101704 210.63728948 56.46850586 210.56762695 C55.12744149 210.56706194 53.78637651 210.56738115 52.4453125 210.56851196 C48.82601195 210.56908297 45.20684546 210.55736978 41.58757591 210.54336405 C37.79728256 210.5308144 34.00698573 210.52968286 30.2166748 210.52731323 C23.04871999 210.52111086 15.88082658 210.50471696 8.71289873 210.48461425 C0.54842739 210.46221645 -7.61604697 210.45125208 -15.78054142 210.44122338 C-32.56670216 210.42034956 -49.35280124 210.38519789 -66.13891602 210.34057617 C-65.54880082 200.08378123 -64.39555174 189.97955621 -62.97753906 179.81103516 C-62.75692274 178.20451728 -62.53667822 176.5979483 -62.31677246 174.99133301 C-61.72401296 170.67054405 -61.12532182 166.35059841 -60.52487922 162.03087115 C-60.14881047 159.32353672 -59.77399942 156.61603111 -59.3996067 153.90846443 C-58.09013299 144.43927024 -56.7755937 134.97079439 -55.45654297 125.50292969 C-54.23212041 116.71324022 -53.01923959 107.92200958 -51.81162423 99.12999672 C-50.76954549 91.5471849 -49.71911756 83.96555916 -48.66235763 76.38477951 C-48.03343496 71.87202523 -47.40782975 67.35887454 -46.79077721 62.84448051 C-46.21016115 58.59865319 -45.61908097 54.35440738 -45.02028656 50.11110687 C-44.80374582 48.56418314 -44.59078854 47.01675232 -44.38191414 45.4687748 C-40.55600787 17.17380614 -40.55600787 17.17380614 -29.00219727 7.56323242 C-19.80425158 0.99785758 -11.11707587 -0.09976111 0 0 Z " fill="#555555" transform="translate(1291.138916015625,87.659423828125)"/>
<path d="M0 0 C1.93317833 -0.00065712 1.93317833 -0.00065712 3.90541077 -0.00132751 C7.41315855 -0.00218269 10.92059396 0.01536473 14.42826962 0.03639436 C18.10376957 0.05524158 21.77927792 0.0569179 25.45481873 0.06047058 C32.40320029 0.06976755 39.35143902 0.09434923 46.2997579 0.12451905 C54.21515251 0.15813651 62.1305542 0.17456747 70.04600251 0.18960536 C86.31777974 0.22090113 102.58941359 0.27361551 118.86108398 0.34057617 C118.72104214 2.89167496 118.57575799 5.44229683 118.42749023 7.99291992 C118.36930115 9.06769592 118.36930115 9.06769592 118.30993652 10.16418457 C117.83083502 18.25336216 117.1026141 24.72271115 110.86108398 30.40307617 C107.28137456 33.28447107 104.4562113 34.46684431 99.85578918 34.46083069 C98.63796501 34.46289268 98.63796501 34.46289268 97.39553833 34.46499634 C96.50865326 34.46140106 95.62176819 34.45780579 94.70800781 34.45410156 C93.30283653 34.4543206 93.30283653 34.4543206 91.86927795 34.45454407 C88.76886693 34.45384668 85.66851578 34.44606235 82.56811523 34.43823242 C80.42005954 34.43636763 78.27200342 34.43494401 76.12394714 34.4339447 C70.46699858 34.43012437 64.81007564 34.42029819 59.15313721 34.40924072 C53.38196153 34.39901622 47.61078173 34.39444485 41.83959961 34.3894043 C30.51341647 34.37867551 19.18725236 34.36160486 7.86108398 34.34057617 C7.53108398 38.30057617 7.20108398 42.26057617 6.86108398 46.34057617 C5.21108398 57.56057617 3.56108398 68.78057617 1.86108398 80.34057617 C48.39108398 80.83557617 48.39108398 80.83557617 95.86108398 81.34057617 C95.21179984 89.78127005 94.47987194 98.09128218 93.36108398 106.46557617 C93.16579102 107.98538086 93.16579102 107.98538086 92.96655273 109.53588867 C91.98998165 116.95388318 91.98998165 116.95388318 90.86108398 120.34057617 C59.51108398 120.34057617 28.16108398 120.34057617 -4.13891602 120.34057617 C-4.46891602 123.97057617 -4.79891602 127.60057617 -5.13891602 131.34057617 C-5.56642914 134.37179872 -6.01453687 137.3845485 -6.51391602 140.40307617 C-6.64330566 141.20165039 -6.77269531 142.00022461 -6.90600586 142.82299805 C-7.17646693 144.48687193 -7.44877363 146.15044682 -7.72290039 147.8137207 C-8.1424872 150.36226734 -8.55516844 152.91186638 -8.96704102 155.46166992 C-9.23226357 157.08803769 -9.49787428 158.71434221 -9.76391602 160.34057617 C-9.88686035 161.09991455 -10.00980469 161.85925293 -10.13647461 162.64160156 C-10.63345298 165.64095174 -11.17562788 168.45071177 -12.13891602 171.34057617 C23.17108398 171.34057617 58.48108398 171.34057617 94.86108398 171.34057617 C94.86108398 183.79332223 94.77325222 192.65049106 86.48608398 202.02807617 C77.07910511 210.31517661 68.5101704 210.63728948 56.46850586 210.56762695 C55.12744149 210.56706194 53.78637651 210.56738115 52.4453125 210.56851196 C48.82601195 210.56908297 45.20684546 210.55736978 41.58757591 210.54336405 C37.79728256 210.5308144 34.00698573 210.52968286 30.2166748 210.52731323 C23.04871999 210.52111086 15.88082658 210.50471696 8.71289873 210.48461425 C0.54842739 210.46221645 -7.61604697 210.45125208 -15.78054142 210.44122338 C-32.56670216 210.42034956 -49.35280124 210.38519789 -66.13891602 210.34057617 C-65.54880082 200.08378123 -64.39555174 189.97955621 -62.97753906 179.81103516 C-62.75692274 178.20451728 -62.53667822 176.5979483 -62.31677246 174.99133301 C-61.72401296 170.67054405 -61.12532182 166.35059841 -60.52487922 162.03087115 C-60.14881047 159.32353672 -59.77399942 156.61603111 -59.3996067 153.90846443 C-58.09013299 144.43927024 -56.7755937 134.97079439 -55.45654297 125.50292969 C-54.23212041 116.71324022 -53.01923959 107.92200958 -51.81162423 99.12999672 C-50.76954549 91.5471849 -49.71911756 83.96555916 -48.66235763 76.38477951 C-48.03343496 71.87202523 -47.40782975 67.35887454 -46.79077721 62.84448051 C-46.21016115 58.59865319 -45.61908097 54.35440738 -45.02028656 50.11110687 C-44.80374582 48.56418314 -44.59078854 47.01675232 -44.38191414 45.4687748 C-40.55600787 17.17380614 -40.55600787 17.17380614 -29.00219727 7.56323242 C-19.80425158 0.99785758 -11.11707587 -0.09976111 0 0 Z " fill="#727272" transform="translate(669.138916015625,87.659423828125)"/>
<path d="M0 0 C1.49608773 0.01005392 2.99218203 0.01917549 4.48828125 0.02734375 C8.11732626 0.04915692 11.74611985 0.08355259 15.375 0.125 C15.52370419 0.75828122 15.67240837 1.39156244 15.82561874 2.044034 C19.50992999 17.7342429 23.19437298 33.42442085 26.87894821 49.11456776 C28.83456595 57.44225293 30.79016039 65.76994357 32.74556303 74.09767926 C33.60896638 77.77472585 34.47247105 81.45174859 35.33618927 85.12872124 C36.8774437 91.69035995 38.41817208 98.25211888 39.95560694 104.81465375 C40.79609271 108.4021027 41.63713851 111.98942016 42.47851562 115.57666016 C42.64250319 116.27585705 42.80649076 116.97505394 42.97544765 117.69543862 C45.01824913 126.40090601 47.08225287 135.10091969 49.17382431 143.79480076 C50.31833032 148.55225707 51.45630501 153.31126613 52.59415436 158.07031822 C53.11808415 160.25189397 53.64564808 162.43260069 54.17714691 164.61234474 C54.90082157 167.58022837 55.6122923 170.55079845 56.32128906 173.5222168 C56.53212883 174.37143644 56.7429686 175.22065609 56.96019745 176.09560966 C58.91871524 184.40811231 59.62879472 192.41077704 55.375 200.125 C51.92385823 204.10708666 48.40859512 207.44713496 43.375 209.125 C40.86131945 209.2096817 38.37630626 209.24101885 35.86328125 209.22265625 C35.13505661 209.2212413 34.40683197 209.21982635 33.65653992 209.21836853 C31.33348461 209.21277659 29.01052612 209.20022562 26.6875 209.1875 C25.11132952 209.18248396 23.53515752 209.17792123 21.95898438 209.17382812 C18.09761902 209.1628098 14.23632592 209.14555074 10.375 209.125 C8.78712601 204.68152081 7.73707708 200.31541342 6.8671875 195.6796875 C6.73684113 194.98739044 6.60649475 194.29509338 6.47219849 193.58181763 C6.19962297 192.12833438 5.92913514 190.67445821 5.66064453 189.22021484 C5.2497271 186.99852455 4.83041015 184.77853472 4.41015625 182.55859375 C4.1453317 181.1407186 3.88099195 179.7227528 3.6171875 178.3046875 C3.3785498 177.02319824 3.13991211 175.74170898 2.89404297 174.42138672 C2.375 171.125 2.375 171.125 2.375 167.125 C-22.375 167.125 -47.125 167.125 -72.625 167.125 C-73.615 170.095 -73.615 170.095 -74.625 173.125 C-85.71138316 200.22924881 -85.71138316 200.22924881 -98 206.6875 C-101.75588033 208.17690082 -104.62836049 209.25117236 -108.63745117 209.23852539 C-109.43805466 209.23844986 -110.23865814 209.23837433 -111.06352234 209.23829651 C-111.92298965 209.23313522 -112.78245697 209.22797394 -113.66796875 209.22265625 C-114.5515657 209.2212413 -115.43516266 209.21982635 -116.34553528 209.21836853 C-119.16789128 209.21277069 -121.99016797 209.20021861 -124.8125 209.1875 C-126.72591031 209.18248472 -128.63932187 209.17792186 -130.55273438 209.17382812 C-135.24352014 209.16280197 -139.93424663 209.14553883 -144.625 209.125 C-140.40330429 199.33698435 -136.04638128 189.64647997 -131.375 180.0625 C-130.34849741 177.94683816 -129.32247667 175.83094248 -128.296875 173.71484375 C-127.72702881 172.54131348 -127.15718262 171.3677832 -126.57006836 170.15869141 C-125.15568496 167.23528015 -123.75912591 164.30385486 -122.36938477 161.36865234 C-114.59758018 144.97686218 -106.51297661 128.74644994 -98.39086914 112.52636719 C-96.44637001 108.64308385 -94.50552455 104.75798734 -92.56561852 100.87240791 C-78.69988789 73.10632913 -78.69988789 73.10632913 -71.79112244 60.13284302 C-69.41545158 55.66380301 -67.13580584 51.16042323 -64.9375 46.6015625 C-49.54502768 14.6903394 -49.54502768 14.6903394 -36.625 7.125 C-35.84382812 6.66609375 -35.06265625 6.2071875 -34.2578125 5.734375 C-23.28837489 -0.21167529 -12.17559052 -0.14330586 0 0 Z M-18.625 43.125 C-17.625 45.125 -17.625 45.125 -17.625 45.125 Z M-19.625 50.125 C-33.15576689 77.7823923 -33.15576689 77.7823923 -46.5625 105.5 C-47.01463867 106.439646 -47.46677734 107.37929199 -47.93261719 108.34741211 C-53.57788509 117.95668815 -53.57788509 117.95668815 -56.625 128.125 C-39.135 128.125 -21.645 128.125 -3.625 128.125 C-5.68391354 117.29382026 -5.68391354 117.29382026 -7.74414062 106.46289062 C-8.58707485 102.03303587 -9.42986887 97.60315482 -10.27172852 93.1730957 C-10.95192116 89.59381956 -11.63282539 86.0146794 -12.31418419 82.43562508 C-12.57152348 81.0832285 -12.82862394 79.73078646 -13.08545876 78.37829399 C-14.87630258 68.94890162 -16.72750403 59.53341098 -18.625 50.125 C-18.955 50.125 -19.285 50.125 -19.625 50.125 Z " fill="#6B6B6B" transform="translate(914.625,87.875)"/>
<path d="M0 0 C1.25354279 -0.00274933 2.50708557 -0.00549866 3.7986145 -0.0083313 C5.17471411 -0.00125444 6.55081273 0.00601516 7.9269104 0.01345825 C9.38590487 0.01402281 10.8448999 0.01370493 12.30389404 0.01257324 C16.25387608 0.01200048 20.20373612 0.02374236 24.15368986 0.03772116 C28.28566078 0.0502413 32.41763463 0.05140003 36.54962158 0.05377197 C44.36929425 0.05998297 52.18891086 0.07638864 60.00855887 0.09647095 C68.91299471 0.11884179 77.81743326 0.12982636 86.72189021 0.13986182 C105.03456542 0.1607552 123.34718848 0.19592379 141.65982056 0.24050903 C141.52134679 2.3072394 141.37696918 4.37357471 141.23013306 6.43972778 C141.15037231 7.59045776 141.07061157 8.74118774 140.98843384 9.92678833 C140.14766133 18.4050983 137.19788123 24.65211081 130.65982056 30.24050903 C122.78637074 35.19058747 115.98289428 36.39663435 106.85903931 36.33816528 C106.02266434 36.33675034 105.18628937 36.33533539 104.3245697 36.33387756 C101.66544956 36.32830087 99.00641505 36.31575268 96.34732056 36.30300903 C94.53937907 36.29799102 92.73143625 36.29342864 90.92349243 36.28933716 C86.50223571 36.27833907 82.08104263 36.26109053 77.65982056 36.24050903 C77.60738347 37.09946683 77.55494638 37.95842463 77.5009203 38.84341145 C76.96234086 47.05871464 76.11038464 55.16355016 74.95742798 63.31350708 C74.78814285 64.53658569 74.61885773 65.75966431 74.44444275 67.01980591 C73.98520591 70.32801204 73.52172134 73.63555686 73.05542922 76.94277167 C72.76312731 79.01757393 72.47207632 81.09254799 72.18142128 83.16758156 C71.16397896 90.43000768 70.14114429 97.69165279 69.11367798 104.95266724 C68.1610478 111.68597416 67.22105864 118.42096635 66.28673285 125.15683526 C65.47907259 130.97501756 64.66209328 136.7918439 63.83809739 142.60773498 C63.34827903 146.06623201 62.86217377 149.52514658 62.38570213 152.98550987 C61.85404145 156.84418438 61.30301251 160.69996277 60.75039673 164.55569458 C60.59803558 165.68169571 60.44567444 166.80769684 60.28869629 167.96781921 C58.24380187 181.95239943 53.73305017 192.52035631 42.81216431 201.70144653 C36.58002584 206.15782141 29.85441733 208.38047902 22.23794556 208.33816528 C21.21314087 208.33494263 20.18833618 208.33171997 19.13247681 208.32839966 C18.06900024 208.32002075 17.00552368 208.31164185 15.90982056 208.30300903 C14.83087524 208.29849731 13.75192993 208.2939856 12.64028931 208.28933716 C9.98007387 208.27756629 7.31998511 208.26026202 4.65982056 208.24050903 C6.22110152 191.20493263 8.67027832 174.29084032 11.07018781 157.35831571 C11.65243339 153.24594147 12.23118047 149.13307462 12.81044006 145.02027893 C13.78063714 138.1355988 14.75344553 131.2512917 15.72793579 124.36721802 C16.8537055 116.41427593 17.97556486 108.4607897 19.09532601 100.50699955 C20.17719558 92.8228156 21.2614883 85.13897559 22.34699821 77.4553051 C22.80744076 74.1959345 23.26708955 70.93645343 23.72610664 67.67688179 C24.26504812 63.85069954 24.80612735 60.02482554 25.34886932 56.1991806 C25.5475379 54.79641219 25.74548144 53.39354086 25.94264793 51.99056053 C26.21171435 50.07685775 26.48367411 48.16356244 26.75578308 46.25028992 C26.90712487 45.17987741 27.05846666 44.10946489 27.21439457 43.00661564 C27.65982056 40.24050903 27.65982056 40.24050903 28.65982056 36.24050903 C8.85982056 36.24050903 -10.94017944 36.24050903 -31.34017944 36.24050903 C-30.35955283 24.47298965 -29.22585788 15.22946763 -20.34017944 7.24050903 C-14.04011062 2.50285728 -7.97765427 -0.0135444 0 0 Z " fill="#7C7C7C" transform="translate(65.34017944335938,88.75949096679688)"/>
</svg>
